<svg width="232" height="232" viewBox="0 0 232 232" fill="none" xmlns="http://www.w3.org/2000/svg">
  <path d="M105.903 4.2136C111.784 -0.570598 120.216 -0.570602 126.097 4.2136L136.84 12.9532C140.377 15.8304 144.974 17.062 149.475 16.3387L163.149 14.1417C170.634 12.939 177.936 17.1547 180.637 24.2385L185.572 37.1789C187.196 41.4391 190.561 44.804 194.821 46.4284L207.761 51.3627C214.845 54.0638 219.061 61.3656 217.858 68.8509L215.661 82.5248C214.938 87.0264 216.17 91.6228 219.047 95.1598L227.786 105.903C232.571 111.784 232.571 120.216 227.786 126.097L219.047 136.84C216.17 140.377 214.938 144.974 215.661 149.475L217.858 163.149C219.061 170.634 214.845 177.936 207.761 180.637L194.821 185.572C190.561 187.196 187.196 190.561 185.572 194.821L180.637 207.761C177.936 214.845 170.634 219.061 163.149 217.858L149.475 215.661C144.974 214.938 140.377 216.17 136.84 219.047L126.097 227.786C120.216 232.571 111.784 232.571 105.903 227.786L95.1598 219.047C91.6229 216.17 87.0264 214.938 82.5248 215.661L68.8509 217.858C61.3656 219.061 54.0638 214.845 51.3627 207.761L46.4284 194.821C44.804 190.561 41.4391 187.196 37.1789 185.572L24.2386 180.637C17.1548 177.936 12.939 170.634 14.1417 163.149L16.3387 149.475C17.062 144.974 15.8304 140.377 12.9532 136.84L4.2136 126.097C-0.570597 120.216 -0.570603 111.784 4.21359 105.903L12.9532 95.1598C15.8304 91.6229 17.062 87.0264 16.3387 82.5248L14.1417 68.8509C12.939 61.3656 17.1547 54.0638 24.2385 51.3627L37.1789 46.4284C41.4391 44.804 44.804 41.4391 46.4284 37.1789L51.3627 24.2386C54.0638 17.1548 61.3656 12.939 68.8509 14.1417L82.5248 16.3387C87.0264 17.062 91.6228 15.8304 95.1598 12.9532L105.903 4.2136Z" fill="#724012"/>
  <circle cx="116" cy="116" r="88" fill="#FFF3E8"/>
</svg>
